<?xml version="1.0" encoding="utf-8"?>
<!-- Generator: Adobe Illustrator 27.0.0, SVG Export Plug-In . SVG Version: 6.00 Build 0)  -->
<svg version="1.1" id="图层_1" xmlns="http://www.w3.org/2000/svg" xmlns:xlink="http://www.w3.org/1999/xlink" x="0px" y="0px"
	 viewBox="0 0 1024 1024" style="enable-background:new 0 0 1024 1024;" xml:space="preserve">
<style type="text/css">
	.st0{fill:#828282;}
	.st1{fill:#FFFFFF;}
</style>
<g>
	<g>
		<g>
			<path class="st0" d="M908.98,1024H115.02C51.6,1024,0,972.4,0,908.98V115.02C0,51.6,51.6,0,115.02,0h793.96
				C972.4,0,1024,51.6,1024,115.02v793.97C1024,972.4,972.4,1024,908.98,1024z"/>
		</g>
		<path class="st1" d="M700.2,469.92H554.09V323.81c0-23.15-18.94-42.09-42.08-42.09c-23.14,0-42.08,18.94-42.08,42.09v146.11
			H323.81c-23.14,0-42.08,18.93-42.08,42.09c0,23.14,18.94,42.07,42.08,42.07h146.12V700.2c0,23.14,18.94,42.08,42.08,42.08
			c23.14,0,42.08-18.94,42.08-42.08V554.08H700.2c23.14,0,42.08-18.93,42.08-42.07C742.28,488.85,723.35,469.92,700.2,469.92z"/>
	</g>
</g>
</svg>
