<?xml version="1.0" encoding="utf-8"?>
<!-- Generator: Adobe Illustrator 27.0.0, SVG Export Plug-In . SVG Version: 6.00 Build 0)  -->
<svg version="1.1" id="图层_1" xmlns="http://www.w3.org/2000/svg" xmlns:xlink="http://www.w3.org/1999/xlink" x="0px" y="0px"
	 viewBox="0 0 1000 1000" style="enable-background:new 0 0 1000 1000;" xml:space="preserve">
<style type="text/css">
	.st0{fill:currentColor;}
</style>
<path class="st0" d="M768.09,431.46h-198.7v-198.7c0-38.01-30.92-68.92-68.92-68.92c-38,0-68.92,30.92-68.92,68.92v198.7h-198.7
	c-38,0-68.92,30.92-68.92,68.92c0,38,30.92,68.91,68.92,68.91h198.7V768c0,38,30.92,68.92,68.92,68.92c38,0,68.92-30.92,68.92-68.92
	V569.29h198.7c38,0,68.91-30.91,68.91-68.91C837,462.38,806.09,431.46,768.09,431.46z"/>
</svg>
