<?xml version="1.0" encoding="utf-8"?>
<!-- Generator: Adobe Illustrator 27.0.0, SVG Export Plug-In . SVG Version: 6.00 Build 0)  -->
<svg version="1.1" id="图层_1" xmlns="http://www.w3.org/2000/svg" xmlns:xlink="http://www.w3.org/1999/xlink" x="0px" y="0px"
	 viewBox="0 0 1024 1024" style="enable-background:new 0 0 1024 1024;" xml:space="preserve">
<style type="text/css">
	.st0{fill:currentColor;}
</style>
<g>
	<g>
		<path class="st0" d="M192,128c-35.34,0-64,28.65-64,64v640.01c0,35.34,28.65,64,64,64h640.01c35.34,0,64-28.65,64-64V192
			c0-35.34-28.65-64-64-64H192 M192,0h640.01c106.04,0,192,85.96,192,192v640.01c0,106.04-85.96,192-192,192H192
			c-106.04,0-192-85.96-192-192V192C0,85.96,85.96,0,192,0z"/>
	</g>
	<g>
		<path class="st0" d="M489.34,263.12L489.34,263.12c30.17,30.17,30.17,60.34,0,90.51L353.58,489.4
			c-30.17,30.17-60.34,30.17-90.51,0l0,0c-30.17-30.17-30.17-60.34,0-90.51l135.76-135.76C429,232.95,459.17,232.95,489.34,263.12z"
			/>
	</g>
	<g>
		<path class="st0" d="M760.91,534.61L760.91,534.61c30.17,30.17,30.17,60.34,0,90.51L625.14,760.88
			c-30.17,30.17-60.34,30.17-90.51,0l0,0c-30.17-30.17-30.17-60.34,0-90.51L670.4,534.61C700.57,504.44,730.73,504.44,760.91,534.61
			L760.91,534.61z"/>
	</g>
	<g>
		<path class="st0" d="M715.65,308.4L715.65,308.4c30.17,30.17,30.17,60.34,0,90.51L398.86,715.69c-30.17,30.17-60.34,30.17-90.51,0
			l0,0c-30.17-30.17-30.17-60.34,0-90.51L625.14,308.4C655.3,278.22,685.47,278.22,715.65,308.4z"/>
	</g>
</g>
</svg>
 