<?xml version="1.0" encoding="utf-8"?>
<!-- Generator: Adobe Illustrator 27.0.0, SVG Export Plug-In . SVG Version: 6.00 Build 0)  -->
<svg version="1.1" id="图层_1" xmlns="http://www.w3.org/2000/svg" xmlns:xlink="http://www.w3.org/1999/xlink" x="0px" y="0px"
	 viewBox="0 0 1024 1024" style="enable-background:new 0 0 1024 1024;" xml:space="preserve">
<style type="text/css">
	.st0{fill:currentColor;}
</style>
<g>
	<g>
		<path class="st0" d="M512,341.48c-131.58,0-238.25,106.67-238.25,238.25S380.42,817.97,512,817.97S750.25,711.3,750.25,579.72
			S643.58,341.48,512,341.48z M512,748.18c-93.04,0-168.47-75.42-168.47-168.47S418.96,411.24,512,411.24
			s168.47,75.42,168.47,168.47S605.04,748.18,512,748.18z"/>
	</g>
	<g>
		<g>
			<path class="st0" d="M877.31,984H146.69C66.24,984,0.8,918.54,0.8,838.09V390.2c0-80.45,65.44-145.9,145.89-145.9h104.18
				c14.58,0,26.85-11.39,27.93-25.94l6-80.95C288.85,82.79,334.92,40,389.69,40H622.7c54.77,0,100.85,42.78,104.89,97.4l6,80.76
				c1.08,14.55,13.35,25.93,27.93,25.93h115.79c80.45,0,145.89,65.46,145.89,145.91v448.09C1023.2,918.54,957.76,984,877.31,984z
				 M146.69,353.41c-20.27,0-36.78,16.51-36.78,36.78v447.89c0,20.3,16.51,36.79,36.78,36.79h730.62
				c20.27,0,36.78-16.51,36.78-36.79V390.01c0-20.29-16.51-36.79-36.78-36.79H761.54c-71.39,0-131.46-55.78-136.74-126.96
				l-5.72-77.12H393.35l-5.74,77.32c-5.29,71.21-65.35,126.99-136.74,126.99H146.69V353.41z M333.21,222.39h0.15H333.21z"/>
		</g>
	</g>
</g>
</svg>
 