<?xml version="1.0" encoding="utf-8"?>
<!-- Generator: Adobe Illustrator 27.0.0, SVG Export Plug-In . SVG Version: 6.00 Build 0)  -->
<svg version="1.1" id="图层_1" xmlns="http://www.w3.org/2000/svg" xmlns:xlink="http://www.w3.org/1999/xlink" x="0px" y="0px"
	 viewBox="0 0 1000 1000" style="enable-background:new 0 0 1000 1000;" xml:space="preserve">
<path d="M639.91,500.4l331.98-331.99c38.28-38.27,38.28-100.32,0-138.59l-1.11-1.11c-38.28-38.27-100.31-38.27-138.59,0
	L500.21,360.69l-332-331.99C129.93-9.57,67.88-9.57,29.62,28.7l-1.11,1.11c-38.28,38.28-38.28,100.32,0,138.59l332,331.99
	l-332,331.99c-38.28,38.28-38.28,100.32,0,138.59l1.11,1.11c38.26,38.27,100.31,38.27,138.59,0l332-331.99l331.98,331.99
	c38.28,38.27,100.31,38.27,138.59,0l1.11-1.11c38.28-38.27,38.28-100.32,0-138.59L639.91,500.4z"/>
</svg>
