<?xml version="1.0" encoding="utf-8"?>
<!-- Generator: Adobe Illustrator 27.0.0, SVG Export Plug-In . SVG Version: 6.00 Build 0)  -->
<svg version="1.1" id="图层_1" xmlns="http://www.w3.org/2000/svg" xmlns:xlink="http://www.w3.org/1999/xlink" x="0px" y="0px"
	 viewBox="0 0 200 200" style="enable-background:new 0 0 200 200;" xml:space="preserve">
<g>
	<g>
		<path d="M61.29,0L49.81,11.49l25.46,25.46c2.52,2.52,2.52,6.62,0,9.14L9.39,111.96c-2.52,2.52-2.52,6.62,0,9.14l77.01,77.01
			c2.52,2.52,6.62,2.52,9.14,0l77.03-77.03c2.52-2.52,2.52-6.6,0.01-9.13L61.29,0z M51.01,93.31L86.4,57.92
			c2.52-2.52,6.62-2.52,9.14,0l35.39,35.39c4.07,4.07,1.19,11.03-4.57,11.03H55.58C49.83,104.34,46.94,97.38,51.01,93.31z"/>
		<path d="M189.72,160.23l0.25-0.01l-13.82-20.74l-12.67,19.83c-2.16,2.76-3.46,6.23-3.46,10c0,8.97,7.27,16.24,16.24,16.24
			s16.24-7.27,16.24-16.24C192.5,165.95,191.48,162.82,189.72,160.23z"/>
	</g>
</g>
</svg>
