<?xml version="1.0" encoding="utf-8"?>
<!-- Generator: Adobe Illustrator 27.0.0, SVG Export Plug-In . SVG Version: 6.00 Build 0)  -->
<svg version="1.1" id="图层_1" xmlns="http://www.w3.org/2000/svg" xmlns:xlink="http://www.w3.org/1999/xlink" x="0px" y="0px"
	 viewBox="0 0 1024 1024" style="enable-background:new 0 0 1024 1024;" xml:space="preserve">
<style type="text/css">
	.st0{fill:#B7B7B7;}
</style>
<g>
	<path class="st0" d="M512,139.38c-76.85,0-149.5,17.08-215.97,45.7l100.9,100.9C430.77,266.76,469.62,255,512,255
		c129.51,0,231.18,101.68,231.18,231.18c0,42.39-11.76,81.25-30.97,115.08l124.21,124.21c82-60.58,146.94-142.81,184.2-239.3
		C942.06,282.74,743.19,139.38,512,139.38z"/>
	<path class="st0" d="M512,347.47c-16.24,0-31.4,3.12-45.7,7.88l176.53,176.54c4.78-14.29,7.89-29.46,7.89-45.7
		C650.72,407.62,590.65,347.47,512,347.47z"/>
	<path class="st0" d="M151.83,131c-11.76-11.76-30.81-11.76-42.57,0s-11.76,30.81,0,42.57l75.63,75.63
		C104.26,309.56,40.24,390.83,3.37,486.19C82.02,689.63,280.82,833,512,833c75.48,0,146.82-16.63,212.34-44.33l78.53,78.53
		c5.88,5.88,13.58,8.82,21.29,8.82s15.41-2.94,21.29-8.82c11.76-11.76,11.76-30.81,0-42.57L151.83,131z M512,717.37
		c-129.45,0-231.18-101.68-231.18-231.18c0-41.04,11.19-78.66,29.33-111.73l70,70c-4.07,13.17-6.86,26.96-6.86,41.73
		c0,78.57,60.15,138.72,138.72,138.72c14.77,0,28.58-2.79,41.73-6.85l70,70C590.67,706.19,553.04,717.37,512,717.37z"/>
</g>
</svg>
