<?xml version="1.0" encoding="utf-8"?>
<!-- Generator: Adobe Illustrator 27.0.0, SVG Export Plug-In . SVG Version: 6.00 Build 0)  -->
<svg version="1.1" id="图层_1" xmlns="http://www.w3.org/2000/svg" xmlns:xlink="http://www.w3.org/1999/xlink" x="0px" y="0px"
	 viewBox="0 0 1024 1024" style="enable-background:new 0 0 1024 1024;" xml:space="preserve">
<style type="text/css">
	.st0{clip-path:url(#SVGID_00000055679437423488765450000003999844407723465613_);}
</style>
<g>
	<g>
		<defs>
			<rect id="SVGID_1_" y="107.2" width="1024" height="809.6"/>
		</defs>
		<clipPath id="SVGID_00000031168067514999729000000002953116043320035200_">
			<use xlink:href="#SVGID_1_"  style="overflow:visible;"/>
		</clipPath>
		<path style="clip-path:url(#SVGID_00000031168067514999729000000002953116043320035200_);" d="M909.58,326.2
			c14.93,1.57,29.86,5.5,44.78,11.78c14.93,6.29,27.89,15.13,38.89,26.52c11,11.39,19.25,25.73,24.75,43.01
			c5.5,17.29,6.28,38.11,2.35,62.46c-1.57,6.29-4.71,21.8-9.42,46.55c-4.71,24.75-10.22,53.23-16.5,85.43
			c-6.29,32.22-13.36,65.41-21.21,99.58c-7.86,34.18-15.32,63.44-22.39,87.79c-3.93,14.14-9.63,28.68-17.09,43.61
			c-7.46,14.92-17.09,28.48-28.87,40.65c-11.78,12.18-25.92,22.19-42.42,30.05c-16.5,7.86-36.14,11.79-58.92,11.79H150.67
			c-16.5,0-33.59-3.54-51.26-10.61c-17.68-7.07-33.98-17.09-48.9-30.05c-14.93-12.96-27.11-28.68-36.53-47.13
			c-9.43-18.46-14.14-39.09-14.14-61.87V260.21c0-47.92,12.96-85.44,38.89-112.54c25.92-27.1,62.46-40.66,109.59-40.66H728.1
			c17.28,0,35.15,3.34,53.62,10.02c18.46,6.67,35.16,15.91,50.08,27.69c14.92,11.78,27.1,25.53,36.53,41.25
			c9.43,15.71,14.14,32.6,14.14,50.67v12.96H821.2c-31.42,0-68.15-0.2-110.18-0.59c-42.03-0.39-86.81-0.59-134.34-0.59
			c-47.53,0-91.92-0.2-133.16-0.59c-41.25-0.39-76.8-0.59-106.65-0.59h-54.21c-20.43,0-36.34,6.48-47.73,19.44
			c-11.39,12.96-20.23,30.05-26.51,51.26c-6.29,22.78-13.36,46.94-21.21,72.48c-7.86,25.53-14.93,49.3-21.21,71.29
			c-7.86,25.93-15.71,51.07-23.57,75.42c-1.57,6.29-2.36,11.39-2.36,15.32c0,13.36,4.52,24.55,13.55,33.59
			c9.04,9.04,20.23,13.55,33.59,13.55c24.35,0,40.85-15.32,49.49-45.96l62.46-228.62c102.13,0.79,195.62,1.18,280.47,1.18H909.58z
			 M909.58,326.2"/>
	</g>
</g>
</svg>
