<?xml version="1.0" encoding="utf-8"?>
<!-- Generator: Adobe Illustrator 27.0.0, SVG Export Plug-In . SVG Version: 6.00 Build 0)  -->
<svg version="1.1" id="图层_1" xmlns="http://www.w3.org/2000/svg" xmlns:xlink="http://www.w3.org/1999/xlink" x="0px" y="0px"
	 viewBox="0 0 1024 1024" style="enable-background:new 0 0 1024 1024;" xml:space="preserve">
<style type="text/css">
	.st0{fill:currentColor;}
</style>
<g>
	<path class="st0" d="M565.88,0v220.47c120.77,22.37,215.27,116.84,237.69,237.61h220.39v107.85H803.49
		C781.12,686.69,686.65,781.2,565.88,803.62v220.39H458.03V803.53c-120.77-22.37-215.27-116.84-237.69-237.61H0.04V458.07h220.47
		c22.37-120.77,116.84-215.27,237.61-237.69V0.07h107.85L565.88,0z M268.13,758.9c18.44,19.4,19.49,49,3.8,69.61l-5.9,6.54
		l-94.27,89.34c-21.67,20.43-55.8,19.41-76.23-2.27c-18.02-19.13-19.63-48.46-3.81-69.45l5.9-6.47l94.35-89.41
		C213.59,736.38,247.67,737.32,268.13,758.9z M817.72,747.1l7.44,4.2l6.79,5.49l94.35,89.34c21.48,20.63,22.15,54.77,1.51,76.25
		c-18.08,18.82-47.06,21.98-68.78,7.51l-6.87-5.49l-94.27-89.34c-21.54-20.57-22.31-54.71-1.73-76.24
		C772.07,742.16,796.81,737.45,817.72,747.1L817.72,747.1z M511.96,323.37c-103.32-0.01-187.42,83.11-188.62,186.43v4.37l0.4,10.76
		c7.14,103.92,97.18,182.38,201.11,175.24c103.92-7.14,182.38-97.18,175.24-201.11C693.29,400.16,611.1,323.4,511.96,323.37z
		 M928.32,98.63c18.51,19.4,19.56,49,3.88,69.69l-5.9,6.47l-94.35,89.41c-21.71,20.39-55.84,19.32-76.23-2.39
		c-17.97-19.13-19.55-48.44-3.74-69.39l5.9-6.47l94.27-89.41c21.62-20.48,55.76-19.54,76.23,2.1c0,0,0,0,0.01,0.01L928.32,98.63z
		 M157.52,86.73l7.44,4.2l6.87,5.49l94.27,89.41c21.48,20.63,22.15,54.77,1.51,76.25c-18.08,18.82-47.06,21.98-68.78,7.51
		l-6.79-5.49L97.7,174.69c-21.54-20.57-22.31-54.71-1.73-76.24C111.88,81.8,136.61,77.1,157.52,86.73z"/>
</g>
</svg>
 