<?xml version="1.0" encoding="utf-8"?>
<!-- Generator: Adobe Illustrator 27.0.0, SVG Export Plug-In . SVG Version: 6.00 Build 0)  -->
<svg version="1.1" id="图层_1" xmlns="http://www.w3.org/2000/svg" xmlns:xlink="http://www.w3.org/1999/xlink" x="0px" y="0px"
	 viewBox="0 0 1024 1024" style="enable-background:new 0 0 1024 1024;" xml:space="preserve">
<style type="text/css">
	.st0{fill:currentColor;}
</style>
<g>
	<path class="st0" d="M1009.27,170.56L866.94,28.24c-19.65-19.66-51.51-19.66-71.15,0l-415.82,415.8
		c-5.5,5.52-9.66,12.21-12.13,19.6l-71.75,214.07c-13.2,39.39,24.31,76.9,63.7,63.7l214.07-71.75c7.38-2.48,14.1-6.63,19.6-12.13
		l415.8-415.82C1028.91,222.07,1028.91,190.21,1009.27,170.56z M530.66,578l-107.03,35.88l35.88-107.03l371.86-371.88l71.15,71.17
		L530.66,578z"/>
	<path class="st0" d="M933.9,429.82c-35.31,0-63.92,28.63-63.92,63.92v352.06c0,23.21-18.88,42.07-42.09,42.07H169.92
		c-23.2,0-42.07-18.86-42.07-42.07V178.22c0-23.21,18.86-42.09,42.07-42.09h373.71c35.31,0,63.92-28.63,63.92-63.92
		c0-35.31-28.63-63.92-63.92-63.92H169.92C76.23,8.29,0,84.51,0,178.21v667.58c0,93.7,76.23,169.92,169.92,169.92h657.97
		c93.7,0,169.93-76.22,169.93-169.92V493.75C997.82,458.44,969.21,429.82,933.9,429.82z"/>
</g>
</svg>
 