<?xml version="1.0" encoding="utf-8"?>
<!-- Generator: Adobe Illustrator 27.0.0, SVG Export Plug-In . SVG Version: 6.00 Build 0)  -->
<svg version="1.1" id="图层_1" xmlns="http://www.w3.org/2000/svg" xmlns:xlink="http://www.w3.org/1999/xlink" x="0px" y="0px"
	 viewBox="0 0 225 200" style="enable-background:new 0 0 225 200;" xml:space="preserve">
<g>
	<path d="M210.93,3.59H14.07C6.23,3.59,0,9.97,0,17.81v164.39c0,7.84,6.23,14.22,14.07,14.22h196.86c7.84,0,14.07-6.38,14.07-14.22
		V17.81C225,9.97,218.77,3.59,210.93,3.59z M159.17,102.87c-1.59-1.92-3.94-3.06-6.43-3.12c-2.56,0-4.36,1.2-6.43,2.86l-9.39,7.94
		c-1.96,1.41-3.52,2.36-5.77,2.36c-2.03,0.01-4-0.72-5.53-2.06c-0.74-0.67-1.46-1.36-2.16-2.06L96.44,79.57
		c-2.12-2.42-5.18-3.79-8.39-3.78c-3.36,0-6.48,1.67-8.44,3.92l-63.55,76.62V25.54c0.5-3.42,3.16-5.88,6.58-5.88h179.65
		c3.47,0,6.28,2.57,6.48,6.03l0.15,130.75l-49.77-53.57H159.17z" fill="currentColor"/>
</g>
</svg>
