<?xml version="1.0" encoding="utf-8"?>
<!-- Generator: Adobe Illustrator 27.0.0, SVG Export Plug-In . SVG Version: 6.00 Build 0)  -->
<svg version="1.1" id="图层_1" xmlns="http://www.w3.org/2000/svg" xmlns:xlink="http://www.w3.org/1999/xlink" x="0px" y="0px"
	 viewBox="0 0 1024 1024" style="enable-background:new 0 0 1024 1024;" xml:space="preserve">
<path fill="currentColor" d="M512,139.38c-231.18,0-429.99,143.36-508.63,346.81C82.01,689.63,280.82,833,512,833c231.18,0,430.05-143.36,508.63-346.81
	C942.05,282.74,743.18,139.38,512,139.38 M512,717.37c-129.44,0-231.18-101.67-231.18-231.18C280.82,356.68,382.56,255,512,255
	c129.51,0,231.19,101.68,231.19,231.19C743.18,615.7,641.51,717.37,512,717.37 M512,347.47c-78.57,0-138.72,60.15-138.72,138.72
	c0,78.58,60.15,138.72,138.72,138.72c78.64,0,138.72-60.15,138.72-138.72C650.72,407.61,590.64,347.47,512,347.47"/>
</svg>
